{
	"asset":{
		"generator":"Khronos glTF Blender I/O v4.2.70",
		"version":"2.0"
	},
	"scene":0,
	"scenes":[
		{
			"name":"Scene",
			"nodes":[
				3
			]
		}
	],
	"nodes":[
		{
			"mesh":0,
			"name":"defaultMaterial",
			"rotation":[
				0.0010720312129706144,
				-0.01728001795709133,
				-0.9979315996170044,
				0.061909377574920654
			],
			"translation":[
				-0.0026441607624292374,
				2.3088645935058594,
				-2.178011417388916
			]
		},
		{
			"children":[
				0
			],
			"name":"Cylinder",
			"rotation":[
				-0.70710688829422,
				0,
				0,
				0.7071066498756409
			],
			"scale":[
				99.99999237060547,
				99.9999771118164,
				99.9999771118164
			],
			"translation":[
				2.9249186515808105,
				313.3540954589844,
				93.66877746582031
			]
		},
		{
			"children":[
				1
			],
			"name":"Collada visual scene group",
			"rotation":[
				0.70710688829422,
				0,
				0,
				0.7071066498756409
			]
		},
		{
			"children":[
				2
			],
			"name":"Sketchfab_model",
			"rotation":[
				-0.70710688829422,
				0,
				0,
				0.7071066498756409
			],
			"scale":[
				0.02493751049041748,
				0.02493751235306263,
				0.02493751235306263
			]
		}
	],
	"materials":[
		{
			"alphaMode":"BLEND",
			"doubleSided":true,
			"name":"DefaultMaterial",
			"normalTexture":{
				"index":0
			},
			"occlusionTexture":{
				"index":1
			},
			"pbrMetallicRoughness":{
				"baseColorTexture":{
					"index":2
				},
				"metallicRoughnessTexture":{
					"index":1
				}
			}
		}
	],
	"meshes":[
		{
			"name":"defaultMaterial",
			"primitives":[
				{
					"attributes":{
						"POSITION":0,
						"NORMAL":1,
						"TEXCOORD_0":2
					},
					"indices":3,
					"material":0
				}
			]
		}
	],
	"textures":[
		{
			"sampler":0,
			"source":0
		},
		{
			"sampler":0,
			"source":1
		},
		{
			"sampler":0,
			"source":2
		}
	],
	"images":[
		{
			"mimeType":"image/png",
			"name":"Image_2",
			"uri":"Image_2.png"
		},
		{
			"mimeType":"image/png",
			"name":"Image_1",
			"uri":"Image_1.png"
		},
		{
			"mimeType":"image/png",
			"name":"Image_0",
			"uri":"Image_0.png"
		}
	],
	"accessors":[
		{
			"bufferView":0,
			"componentType":5126,
			"count":8295,
			"max":[
				2.9598546028137207,
				5.006582736968994,
				1.1588939428329468
			],
			"min":[
				-2.957775592803955,
				-0.8833783268928528,
				-0.9632880687713623
			],
			"type":"VEC3"
		},
		{
			"bufferView":1,
			"componentType":5126,
			"count":8295,
			"type":"VEC3"
		},
		{
			"bufferView":2,
			"componentType":5126,
			"count":8295,
			"type":"VEC2"
		},
		{
			"bufferView":3,
			"componentType":5123,
			"count":29190,
			"type":"SCALAR"
		}
	],
	"bufferViews":[
		{
			"buffer":0,
			"byteLength":99540,
			"byteOffset":0,
			"target":34962
		},
		{
			"buffer":0,
			"byteLength":99540,
			"byteOffset":99540,
			"target":34962
		},
		{
			"buffer":0,
			"byteLength":66360,
			"byteOffset":199080,
			"target":34962
		},
		{
			"buffer":0,
			"byteLength":58380,
			"byteOffset":265440,
			"target":34963
		}
	],
	"samplers":[
		{
			"magFilter":9729,
			"minFilter":9987
		}
	],
	"buffers":[
		{
			"byteLength":323820,
			"uri":"untitled.bin"
		}
	]
}
