{
  "accessors": [
    {
      "bufferView": 1,
      "componentType": 5126,
      "count": 3769,
      "max": [
        3.8837900161743164,
        0.6373800039291382,
        0.9679800271987915
      ],
      "min": [
        -0.8864099979400635,
        -20.91667938232422,
        0.14571000635623932
      ],
      "type": "VEC3"
    },
    {
      "bufferView": 1,
      "byteOffset": 45228,
      "componentType": 5126,
      "count": 3769,
      "max": [
        0.9999910593032837,
        0.9999383091926575,
        1.0
      ],
      "min": [
        -0.9990543127059937,
        -0.9975554943084717,
        -1.0
      ],
      "type": "VEC3"
    },
    {
      "bufferView": 0,
      "componentType": 5125,
      "count": 7104,
      "type": "SCALAR"
    },
    {
      "bufferView": 1,
      "byteOffset": 90456,
      "componentType": 5126,
      "count": 65533,
      "max": [
        2.5044798851013184,
        0.6655300259590149,
        0.03650999814271927
      ],
      "min": [
        -2.4029500484466553,
        -2.5204598903656006,
        -0.41951000690460205
      ],
      "type": "VEC3"
    },
    {
      "bufferView": 1,
      "byteOffset": 876852,
      "componentType": 5126,
      "count": 65533,
      "max": [
        0.9999840259552002,
        0.9996334314346313,
        1.0
      ],
      "min": [
        -0.999984622001648,
        -0.9992947578430176,
        -1.0
      ],
      "type": "VEC3"
    },
    {
      "bufferView": 0,
      "byteOffset": 28416,
      "componentType": 5125,
      "count": 98511,
      "type": "SCALAR"
    },
    {
      "bufferView": 1,
      "byteOffset": 1663248,
      "componentType": 5126,
      "count": 16239,
      "max": [
        2.1669600009918213,
        0.6055300235748291,
        -0.05708000063896179
      ],
      "min": [
        -2.395240068435669,
        -2.454240083694458,
        -0.23427000641822815
      ],
      "type": "VEC3"
    },
    {
      "bufferView": 1,
      "byteOffset": 1858116,
      "componentType": 5126,
      "count": 16239,
      "max": [
        0.9784049987792969,
        0.986729621887207,
        1.0
      ],
      "min": [
        -0.9989959597587585,
        -0.9973548650741577,
        -1.0
      ],
      "type": "VEC3"
    },
    {
      "bufferView": 0,
      "byteOffset": 422460,
      "componentType": 5125,
      "count": 24369,
      "type": "SCALAR"
    },
    {
      "bufferView": 1,
      "byteOffset": 2052984,
      "componentType": 5126,
      "count": 65533,
      "max": [
        2.5044798851013184,
        0.6655300259590149,
        0.03650999814271927
      ],
      "min": [
        -2.4029500484466553,
        -2.5204598903656006,
        -0.41951000690460205
      ],
      "type": "VEC3"
    },
    {
      "bufferView": 1,
      "byteOffset": 2839380,
      "componentType": 5126,
      "count": 65533,
      "max": [
        0.9999840259552002,
        0.9996334314346313,
        1.0
      ],
      "min": [
        -0.999984622001648,
        -0.9992947578430176,
        -1.0
      ],
      "type": "VEC3"
    },
    {
      "bufferView": 0,
      "byteOffset": 519936,
      "componentType": 5125,
      "count": 98511,
      "type": "SCALAR"
    },
    {
      "bufferView": 1,
      "byteOffset": 3625776,
      "componentType": 5126,
      "count": 16239,
      "max": [
        2.1669600009918213,
        0.6055300235748291,
        -0.05708000063896179
      ],
      "min": [
        -2.395240068435669,
        -2.454240083694458,
        -0.23427000641822815
      ],
      "type": "VEC3"
    },
    {
      "bufferView": 1,
      "byteOffset": 3820644,
      "componentType": 5126,
      "count": 16239,
      "max": [
        0.9784049987792969,
        0.986729621887207,
        1.0
      ],
      "min": [
        -0.9989959597587585,
        -0.9973548650741577,
        -1.0
      ],
      "type": "VEC3"
    },
    {
      "bufferView": 0,
      "byteOffset": 913980,
      "componentType": 5125,
      "count": 24369,
      "type": "SCALAR"
    },
    {
      "bufferView": 1,
      "byteOffset": 4015512,
      "componentType": 5126,
      "count": 3769,
      "max": [
        3.8837900161743164,
        0.6373800039291382,
        0.9679800271987915
      ],
      "min": [
        -0.8864099979400635,
        -20.91667938232422,
        0.14571000635623932
      ],
      "type": "VEC3"
    },
    {
      "bufferView": 1,
      "byteOffset": 4060740,
      "componentType": 5126,
      "count": 3769,
      "max": [
        0.9999910593032837,
        0.9999383091926575,
        1.0
      ],
      "min": [
        -0.9990543127059937,
        -0.9975554943084717,
        -1.0
      ],
      "type": "VEC3"
    },
    {
      "bufferView": 0,
      "byteOffset": 1011456,
      "componentType": 5125,
      "count": 7104,
      "type": "SCALAR"
    },
    {
      "bufferView": 1,
      "byteOffset": 4105968,
      "componentType": 5126,
      "count": 192,
      "max": [
        2.0967800617218018,
        1.2686100006103516,
        0.05048000067472458
      ],
      "min": [
        -1.8178399801254272,
        -1.7594200372695923,
        0.0
      ],
      "type": "VEC3"
    },
    {
      "bufferView": 1,
      "byteOffset": 4108272,
      "componentType": 5126,
      "count": 192,
      "max": [
        0.9992077350616455,
        0.9999603629112244,
        1.0
      ],
      "min": [
        -0.9974370002746582,
        -0.999381422996521,
        -1.0
      ],
      "type": "VEC3"
    },
    {
      "bufferView": 0,
      "byteOffset": 1039872,
      "componentType": 5125,
      "count": 372,
      "type": "SCALAR"
    },
    {
      "bufferView": 1,
      "byteOffset": 4110576,
      "componentType": 5126,
      "count": 192,
      "max": [
        2.0967800617218018,
        1.2686100006103516,
        0.05048000067472458
      ],
      "min": [
        -1.8178399801254272,
        -1.7594200372695923,
        0.0
      ],
      "type": "VEC3"
    },
    {
      "bufferView": 1,
      "byteOffset": 4112880,
      "componentType": 5126,
      "count": 192,
      "max": [
        0.9992077350616455,
        0.9999603629112244,
        1.0
      ],
      "min": [
        -0.9974370002746582,
        -0.999381422996521,
        -1.0
      ],
      "type": "VEC3"
    },
    {
      "bufferView": 0,
      "byteOffset": 1041360,
      "componentType": 5125,
      "count": 372,
      "type": "SCALAR"
    }
  ],
  "asset": {
    "extras": {
      "author": "Nofil.Khan (https://sketchfab.com/Nofil.Khan)",
      "license": "CC-BY-ND-4.0 (http://creativecommons.org/licenses/by-nd/4.0/)",
      "source": "https://sketchfab.com/3d-models/black-glasses-11940b52003d453b8bd43bf868f1002f",
      "title": "Black glasses"
    },
    "generator": "Sketchfab-12.66.0",
    "version": "2.0"
  },
  "bufferViews": [
    {
      "buffer": 0,
      "byteLength": 1042848,
      "name": "floatBufferViews",
      "target": 34963
    },
    {
      "buffer": 0,
      "byteLength": 4115184,
      "byteOffset": 1042848,
      "byteStride": 12,
      "name": "floatBufferViews",
      "target": 34962
    }
  ],
  "buffers": [
    {
      "byteLength": 5158032,
      "uri": "scene.bin"
    }
  ],
  "extensionsRequired": [
    "KHR_materials_pbrSpecularGlossiness"
  ],
  "extensionsUsed": [
    "KHR_materials_pbrSpecularGlossiness"
  ],
  "materials": [
    {
      "alphaMode": "BLEND",
      "doubleSided": true,
      "extensions": {
        "KHR_materials_pbrSpecularGlossiness": {
          "diffuseFactor": [
            0.0,
            0.0,
            0.0,
            0.5956060698538116
          ],
          "glossinessFactor": 0.0,
          "specularFactor": [
            0.0,
            0.0,
            0.0
          ]
        }
      },
      "name": "mirror"
    },
    {
      "doubleSided": true,
      "extensions": {
        "KHR_materials_pbrSpecularGlossiness": {
          "diffuseFactor": [
            0.0,
            0.0,
            0.0,
            1.0
          ],
          "glossinessFactor": 1.0,
          "specularFactor": [
            0.0469617508,
            0.0469617508,
            0.0469617508
          ]
        }
      },
      "name": "sides"
    },
    {
      "doubleSided": true,
      "extensions": {
        "KHR_materials_pbrSpecularGlossiness": {
          "diffuseFactor": [
            0.0,
            0.0,
            0.0,
            1.0
          ],
          "glossinessFactor": 0.975609757,
          "specularFactor": [
            0.038216904000314314,
            0.038216904000314314,
            0.038216904000314314
          ]
        }
      },
      "name": "front"
    }
  ],
  "meshes": [
    {
      "name": "side_0",
      "primitives": [
        {
          "attributes": {
            "NORMAL": 1,
            "POSITION": 0
          },
          "indices": 2,
          "material": 1,
          "mode": 4
        }
      ]
    },
    {
      "name": "front_0",
      "primitives": [
        {
          "attributes": {
            "NORMAL": 4,
            "POSITION": 3
          },
          "indices": 5,
          "material": 2,
          "mode": 4
        }
      ]
    },
    {
      "name": "front_0",
      "primitives": [
        {
          "attributes": {
            "NORMAL": 7,
            "POSITION": 6
          },
          "indices": 8,
          "material": 2,
          "mode": 4
        }
      ]
    },
    {
      "name": "front.001_0",
      "primitives": [
        {
          "attributes": {
            "NORMAL": 10,
            "POSITION": 9
          },
          "indices": 11,
          "material": 2,
          "mode": 4
        }
      ]
    },
    {
      "name": "front.001_0",
      "primitives": [
        {
          "attributes": {
            "NORMAL": 13,
            "POSITION": 12
          },
          "indices": 14,
          "material": 2,
          "mode": 4
        }
      ]
    },
    {
      "name": "side.001_0",
      "primitives": [
        {
          "attributes": {
            "NORMAL": 16,
            "POSITION": 15
          },
          "indices": 17,
          "material": 1,
          "mode": 4
        }
      ]
    },
    {
      "name": "mirror_0",
      "primitives": [
        {
          "attributes": {
            "NORMAL": 19,
            "POSITION": 18
          },
          "indices": 20,
          "material": 0,
          "mode": 4
        }
      ]
    },
    {
      "name": "mirror.001_0",
      "primitives": [
        {
          "attributes": {
            "NORMAL": 22,
            "POSITION": 21
          },
          "indices": 23,
          "material": 0,
          "mode": 4
        }
      ]
    }
  ],
  "nodes": [
    {
      "children": [
        1
      ],
      "matrix": [
        1.0,
        0.0,
        0.0,
        0.0,
        0.0,
        2.220446049250313e-16,
        -1.0,
        0.0,
        0.0,
        1.0,
        2.220446049250313e-16,
        0.0,
        0.0,
        0.0,
        0.0,
        1.0
      ],
      "name": "Sketchfab_model"
    },
    {
      "children": [
        2,
        4,
        6,
        9,
        12,
        14,
        16
      ],
      "name": "Root"
    },
    {
      "children": [
        3
      ],
      "matrix": [
        -0.31954000000000005,
        0.9124599999999999,
        -0.25557,
        0.0,
        -0.77021,
        -0.09299000000000003,
        0.6309800000000001,
        0.0,
        0.5519700000000001,
        0.3984700000000001,
        0.7325,
        0.0,
        4.06177,
        2.8588099999999996,
        5.51586,
        1.0
      ],
      "name": "Lamp"
    },
    {
      "name": "Lamp"
    },
    {
      "children": [
        5
      ],
      "matrix": [
        0.0022600000000000007,
        -0.050830000000000014,
        -0.23656000000000002,
        0.0,
        0.012700000000000003,
        -0.38604000000000005,
        0.08307000000000002,
        0.0,
        -0.29473,
        -0.009850000000000003,
        -0.0007000000000000002,
        0.0,
        -4.324559999999999,
        0.6468300000000001,
        -0.04813000000000001,
        1.0
      ],
      "name": "side"
    },
    {
      "mesh": 0,
      "name": "side_0"
    },
    {
      "children": [
        7,
        8
      ],
      "matrix": [
        0.9994799999999999,
        0.031990000000000005,
        0.002670000000000001,
        0.0,
        -0.009340000000000003,
        0.21008000000000002,
        0.9776400000000001,
        0.0,
        0.05544,
        -1.76357,
        0.37949000000000005,
        0.0,
        -2.24804,
        0.4313100000000001,
        -0.061670000000000016,
        1.0
      ],
      "name": "front"
    },
    {
      "mesh": 1,
      "name": "front_0"
    },
    {
      "mesh": 2,
      "name": "front_0"
    },
    {
      "children": [
        10,
        11
      ],
      "matrix": [
        -0.9994799999999999,
        -0.031990000000000005,
        -0.002670000000000001,
        0.0,
        -0.009340000000000003,
        0.21008000000000002,
        0.9776400000000001,
        0.0,
        0.05544,
        -1.76357,
        0.37949000000000005,
        0.0,
        2.4992199999999998,
        0.5832700000000001,
        -0.04898,
        1.0
      ],
      "name": "front.001"
    },
    {
      "mesh": 3,
      "name": "front.001_0"
    },
    {
      "mesh": 4,
      "name": "front.001_0"
    },
    {
      "children": [
        13
      ],
      "matrix": [
        0.0022600000000000007,
        -0.050830000000000014,
        -0.23656000000000002,
        0.0,
        0.012700000000000003,
        -0.38604000000000005,
        0.08307000000000002,
        0.0,
        -0.29473,
        -0.009850000000000003,
        -0.0007000000000000002,
        0.0,
        4.901870000000001,
        0.9612200000000001,
        -0.027560000000000008,
        1.0
      ],
      "name": "side.001"
    },
    {
      "mesh": 5,
      "name": "side.001_0"
    },
    {
      "children": [
        15
      ],
      "matrix": [
        0.9994799999999999,
        0.031990000000000005,
        0.002670000000000001,
        0.0,
        -0.009340000000000003,
        0.21008000000000002,
        0.9776400000000001,
        0.0,
        0.030720000000000004,
        -0.9771599999999999,
        0.21027,
        0.0,
        -2.3622099999999997,
        0.47128000000000003,
        -0.7920900000000001,
        1.0
      ],
      "name": "mirror"
    },
    {
      "mesh": 6,
      "name": "mirror_0"
    },
    {
      "children": [
        17
      ],
      "matrix": [
        -0.9994799999999999,
        -0.031990000000000005,
        -0.002670000000000001,
        0.0,
        -0.009340000000000003,
        0.21008000000000002,
        0.9776400000000001,
        0.0,
        0.030720000000000004,
        -0.9771599999999999,
        0.21027,
        0.0,
        2.65988,
        0.6320400000000002,
        -0.7786700000000001,
        1.0
      ],
      "name": "mirror.001"
    },
    {
      "mesh": 7,
      "name": "mirror.001_0"
    }
  ],
  "scene": 0,
  "scenes": [
    {
      "name": "Sketchfab_Scene",
      "nodes": [
        0
      ]
    }
  ]
}
