{
  "accessors": [
    {
      "bufferView": 2,
      "componentType": 5126,
      "count": 12292,
      "max": [
        3.5116257667541504,
        3.484919786453247,
        1.0266969203948975
      ],
      "min": [
        -3.5107908248901367,
        1.5252881050109863,
        -0.6702389717102051
      ],
      "type": "VEC3"
    },
    {
      "bufferView": 2,
      "byteOffset": 147504,
      "componentType": 5126,
      "count": 12292,
      "max": [
        0.9999996423721313,
        0.9999408721923828,
        0.9998654127120972
      ],
      "min": [
        -0.9999996423721313,
        -0.9999978542327881,
        -0.9994599223136902
      ],
      "type": "VEC3"
    },
    {
      "bufferView": 1,
      "componentType": 5126,
      "count": 12292,
      "max": [
        1.000000238418579,
        1.0
      ],
      "min": [
        0.0,
        -1.1920928955078125e-07
      ],
      "type": "VEC2"
    },
    {
      "bufferView": 0,
      "componentType": 5125,
      "count": 73728,
      "type": "SCALAR"
    },
    {
      "bufferView": 2,
      "byteOffset": 295008,
      "componentType": 5126,
      "count": 20484,
      "max": [
        3.956420660018921,
        1.5893129110336304,
        0.5788262486457825
      ],
      "min": [
        -3.9568653106689453,
        -4.481705188751221,
        -0.5040796995162964
      ],
      "type": "VEC3"
    },
    {
      "bufferView": 2,
      "byteOffset": 540816,
      "componentType": 5126,
      "count": 20484,
      "max": [
        0.9999969005584717,
        0.9997221827507019,
        0.99998939037323
      ],
      "min": [
        -0.9999998807907104,
        -0.9997221827507019,
        -0.99998939037323
      ],
      "type": "VEC3"
    },
    {
      "bufferView": 1,
      "byteOffset": 98336,
      "componentType": 5126,
      "count": 20484,
      "max": [
        1.0000001192092896,
        1.0
      ],
      "min": [
        0.0,
        -1.1920928955078125e-07
      ],
      "type": "VEC2"
    },
    {
      "bufferView": 0,
      "byteOffset": 294912,
      "componentType": 5125,
      "count": 122880,
      "type": "SCALAR"
    },
    {
      "bufferView": 2,
      "byteOffset": 786624,
      "componentType": 5126,
      "count": 114,
      "max": [
        3.5885837078094482,
        2.49928617477417,
        0.493898868560791
      ],
      "min": [
        -3.5890283584594727,
        1.6059868335723877,
        -0.5012198686599731
      ],
      "type": "VEC3"
    },
    {
      "bufferView": 2,
      "byteOffset": 787992,
      "componentType": 5126,
      "count": 114,
      "max": [
        0.9430786371231079,
        0.9960536956787109,
        0.8515183329582214
      ],
      "min": [
        -0.9541570544242859,
        -0.9960536956787109,
        -0.8515183329582214
      ],
      "type": "VEC3"
    },
    {
      "bufferView": 1,
      "byteOffset": 262208,
      "componentType": 5126,
      "count": 114,
      "max": [
        1.0,
        1.0
      ],
      "min": [
        0.0,
        0.0
      ],
      "type": "VEC2"
    },
    {
      "bufferView": 0,
      "byteOffset": 786432,
      "componentType": 5125,
      "count": 648,
      "type": "SCALAR"
    },
    {
      "bufferView": 2,
      "byteOffset": 789360,
      "componentType": 5126,
      "count": 78,
      "max": [
        3.7114181518554688,
        1.6210260391235352,
        0.26543518900871277
      ],
      "min": [
        -3.711862564086914,
        0.9676023721694946,
        -0.3528498709201813
      ],
      "type": "VEC3"
    },
    {
      "bufferView": 2,
      "byteOffset": 790296,
      "componentType": 5126,
      "count": 78,
      "max": [
        0.9920166730880737,
        0.9083350896835327,
        0.7511897087097168
      ],
      "min": [
        -0.9377684593200684,
        -0.9083350896835327,
        -0.7511897087097168
      ],
      "type": "VEC3"
    },
    {
      "bufferView": 1,
      "byteOffset": 263120,
      "componentType": 5126,
      "count": 78,
      "max": [
        1.0,
        1.0
      ],
      "min": [
        0.5,
        0.0
      ],
      "type": "VEC2"
    },
    {
      "bufferView": 0,
      "byteOffset": 789024,
      "componentType": 5125,
      "count": 432,
      "type": "SCALAR"
    }
  ],
  "asset": {
    "extras": {
      "author": "innsvx (https://sketchfab.com/innsvx)",
      "license": "CC-BY-4.0 (http://creativecommons.org/licenses/by/4.0/)",
      "source": "https://sketchfab.com/3d-models/prada-vintage-star-glasses-d6d2274c95e7402da858ab79d2a90e4a",
      "title": "Prada vintage star Glasses"
    },
    "generator": "Sketchfab-15.53.0",
    "version": "2.0"
  },
  "bufferViews": [
    {
      "buffer": 0,
      "byteLength": 790752,
      "name": "floatBufferViews",
      "target": 34963
    },
    {
      "buffer": 0,
      "byteLength": 263744,
      "byteOffset": 790752,
      "byteStride": 8,
      "name": "floatBufferViews",
      "target": 34962
    },
    {
      "buffer": 0,
      "byteLength": 791232,
      "byteOffset": 1054496,
      "byteStride": 12,
      "name": "floatBufferViews",
      "target": 34962
    }
  ],
  "buffers": [
    {
      "byteLength": 1845728,
      "uri": "scene.bin"
    }
  ],
  "extensionsUsed": [
    "KHR_materials_specular"
  ],
  "images": [
    {
      "uri": "textures/glasses_baseColor.png"
    },
    {
      "uri": "textures/glasses_specularf0.png"
    },
    {
      "uri": "textures/sides_baseColor.png"
    },
    {
      "uri": "textures/star1_baseColor.png"
    },
    {
      "uri": "textures/star2_baseColor.png"
    }
  ],
  "materials": [
    {
      "doubleSided": true,
      "extensions": {
        "KHR_materials_specular": {
          "specularColorFactor": [
            1.0,
            1.0,
            1.0
          ],
          "specularFactor": 1.0,
          "specularTexture": {
            "index": 1
          }
        }
      },
      "name": "glasses",
      "pbrMetallicRoughness": {
        "baseColorTexture": {
          "index": 0
        },
        "metallicFactor": 0.0,
        "roughnessFactor": 0.0954545
      }
    },
    {
      "doubleSided": true,
      "name": "sides",
      "pbrMetallicRoughness": {
        "baseColorTexture": {
          "index": 2
        },
        "roughnessFactor": 0.15
      }
    },
    {
      "doubleSided": true,
      "name": "star1",
      "pbrMetallicRoughness": {
        "baseColorTexture": {
          "index": 3
        },
        "roughnessFactor": 0.459091
      }
    },
    {
      "doubleSided": true,
      "name": "star2",
      "pbrMetallicRoughness": {
        "baseColorTexture": {
          "index": 4
        },
        "roughnessFactor": 0.395455
      }
    }
  ],
  "meshes": [
    {
      "name": "Object_0",
      "primitives": [
        {
          "attributes": {
            "NORMAL": 1,
            "POSITION": 0,
            "TEXCOORD_0": 2
          },
          "indices": 3,
          "material": 0,
          "mode": 4
        }
      ]
    },
    {
      "name": "Object_1",
      "primitives": [
        {
          "attributes": {
            "NORMAL": 5,
            "POSITION": 4,
            "TEXCOORD_0": 6
          },
          "indices": 7,
          "material": 1,
          "mode": 4
        }
      ]
    },
    {
      "name": "Object_2",
      "primitives": [
        {
          "attributes": {
            "NORMAL": 9,
            "POSITION": 8,
            "TEXCOORD_0": 10
          },
          "indices": 11,
          "material": 2,
          "mode": 4
        }
      ]
    },
    {
      "name": "Object_3",
      "primitives": [
        {
          "attributes": {
            "NORMAL": 13,
            "POSITION": 12,
            "TEXCOORD_0": 14
          },
          "indices": 15,
          "material": 3,
          "mode": 4
        }
      ]
    }
  ],
  "nodes": [
    {
      "children": [
        1
      ],
      "matrix": [
        1.0,
        0.0,
        0.0,
        0.0,
        0.0,
        2.220446049250313e-16,
        -1.0,
        0.0,
        0.0,
        1.0,
        2.220446049250313e-16,
        0.0,
        0.0,
        0.0,
        0.0,
        1.0
      ],
      "name": "Sketchfab_model"
    },
    {
      "children": [
        2
      ],
      "name": "root"
    },
    {
      "children": [
        3
      ],
      "matrix": [
        1.0,
        0.0,
        0.0,
        0.0,
        0.0,
        2.220446049250313e-16,
        1.0,
        0.0,
        0.0,
        -1.0,
        2.220446049250313e-16,
        0.0,
        0.0,
        0.0,
        0.0,
        1.0
      ],
      "name": "GLTF_SceneRootNode"
    },
    {
      "children": [
        4,
        5,
        6,
        7
      ],
      "matrix": [
        0.3725477457046509,
        0.0,
        0.0,
        0.0,
        0.0,
        -0.032021631605138545,
        0.30108768152024334,
        0.0,
        0.0,
        -0.5230681894883874,
        -0.0556299639480196,
        0.0,
        0.0,
        0.0,
        0.0,
        1.0
      ],
      "name": "glasses_0"
    },
    {
      "mesh": 0,
      "name": "Object_4"
    },
    {
      "mesh": 1,
      "name": "Object_5"
    },
    {
      "mesh": 2,
      "name": "Object_6"
    },
    {
      "mesh": 3,
      "name": "Object_7"
    }
  ],
  "samplers": [
    {
      "magFilter": 9729,
      "minFilter": 9987,
      "wrapS": 10497,
      "wrapT": 10497
    }
  ],
  "scene": 0,
  "scenes": [
    {
      "name": "Sketchfab_Scene",
      "nodes": [
        0
      ]
    }
  ],
  "textures": [
    {
      "sampler": 0,
      "source": 0
    },
    {
      "sampler": 0,
      "source": 1
    },
    {
      "sampler": 0,
      "source": 2
    },
    {
      "sampler": 0,
      "source": 3
    },
    {
      "sampler": 0,
      "source": 4
    }
  ]
}
