{
  "accessors": [
    {
      "bufferView": 2,
      "componentType": 5126,
      "count": 463,
      "max": [
        3.0925869941711426,
        3.091714382171631,
        0.028458505868911743
      ],
      "min": [
        -3.0925869941711426,
        -4.368708610534668,
        -1.5848476886749268
      ],
      "type": "VEC3"
    },
    {
      "bufferView": 2,
      "byteOffset": 5556,
      "componentType": 5126,
      "count": 463,
      "max": [
        0.7363277673721313,
        0.05863453447818756,
        0.9999617338180542
      ],
      "min": [
        -0.7363277673721313,
        -0.3496708571910858,
        0.674371600151062
      ],
      "type": "VEC3"
    },
    {
      "bufferView": 1,
      "componentType": 5126,
      "count": 463,
      "max": [
        1.0000001192092896,
        0.8666666746139526
      ],
      "min": [
        0.5,
        0.06666667014360428
      ],
      "type": "VEC2"
    },
    {
      "bufferView": 0,
      "componentType": 5125,
      "count": 2544,
      "type": "SCALAR"
    },
    {
      "bufferView": 2,
      "byteOffset": 11112,
      "componentType": 5126,
      "count": 12,
      "max": [
        0.6819999814033508,
        0.9986811280250549,
        0.9675004482269287
      ],
      "min": [
        -0.6819999814033508,
        -1.8337427377700806,
        -0.128999724984169
      ],
      "type": "VEC3"
    },
    {
      "bufferView": 2,
      "byteOffset": 11256,
      "componentType": 5126,
      "count": 12,
      "max": [
        0.8251051902770996,
        0.17905700206756592,
        0.5358545184135437
      ],
      "min": [
        -0.8251089453697205,
        -0.5773615837097168,
        -0.4826609790325165
      ],
      "type": "VEC3"
    },
    {
      "bufferView": 1,
      "byteOffset": 3704,
      "componentType": 5126,
      "count": 12,
      "max": [
        0.6000000238418579,
        0.6000000238418579
      ],
      "min": [
        0.5,
        0.4000000059604645
      ],
      "type": "VEC2"
    },
    {
      "bufferView": 0,
      "byteOffset": 10176,
      "componentType": 5125,
      "count": 12,
      "type": "SCALAR"
    },
    {
      "bufferView": 2,
      "byteOffset": 11400,
      "componentType": 5126,
      "count": 603,
      "max": [
        3.0925869941711426,
        3.091714382171631,
        0.028458505868911743
      ],
      "min": [
        -3.0925869941711426,
        -4.368708610534668,
        -1.652284860610962
      ],
      "type": "VEC3"
    },
    {
      "bufferView": 2,
      "byteOffset": 18636,
      "componentType": 5126,
      "count": 603,
      "max": [
        0.7718178033828735,
        0.9999290704727173,
        0.03189731016755104
      ],
      "min": [
        -0.7719458937644958,
        -0.9406247735023499,
        -0.9999635219573975
      ],
      "type": "VEC3"
    },
    {
      "bufferView": 1,
      "byteOffset": 3800,
      "componentType": 5126,
      "count": 603,
      "max": [
        1.0000001192092896,
        0.8666666746139526
      ],
      "min": [
        0.5,
        0.06666667014360428
      ],
      "type": "VEC2"
    },
    {
      "bufferView": 0,
      "byteOffset": 10224,
      "componentType": 5125,
      "count": 2952,
      "type": "SCALAR"
    }
  ],
  "asset": {
    "extras": {
      "author": "Javier Da Rosa (https://sketchfab.com/Javier_Da_Rosa)",
      "license": "CC-BY-4.0 (http://creativecommons.org/licenses/by/4.0/)",
      "source": "https://sketchfab.com/3d-models/moviers-face-beta-a27257ad7653464e8a069b132cb2ffa9",
      "title": "Movier's Face (beta)"
    },
    "generator": "Sketchfab-12.68.0",
    "version": "2.0"
  },
  "bufferViews": [
    {
      "buffer": 0,
      "byteLength": 22032,
      "name": "floatBufferViews",
      "target": 34963
    },
    {
      "buffer": 0,
      "byteLength": 8624,
      "byteOffset": 22032,
      "byteStride": 8,
      "name": "floatBufferViews",
      "target": 34962
    },
    {
      "buffer": 0,
      "byteLength": 25872,
      "byteOffset": 30656,
      "byteStride": 12,
      "name": "floatBufferViews",
      "target": 34962
    }
  ],
  "buffers": [
    {
      "byteLength": 56528,
      "uri": "scene.bin"
    }
  ],
  "images": [
    {
      "uri": "textures/03_-_Default_baseColor.png"
    },
    {
      "uri": "textures/03_-_Default_metallicRoughness.png"
    }
  ],
  "materials": [
    {
      "name": "03_-_Default",
      "pbrMetallicRoughness": {
        "baseColorTexture": {
          "index": 0
        },
        "metallicFactor": 0.5,
        "metallicRoughnessTexture": {
          "index": 1
        }
      }
    },
    {
      "name": "01_-_Default",
      "pbrMetallicRoughness": {
        "baseColorFactor": [
          0.6038273388553378,
          0.6038273388553378,
          0.6038273388553378,
          1.0
        ],
        "metallicFactor": 0.5,
        "roughnessFactor": 0.25
      }
    },
    {
      "name": "02_-_Default",
      "pbrMetallicRoughness": {
        "baseColorFactor": [
          0.6038273388553378,
          0.6038273388553378,
          0.6038273388553378,
          1.0
        ],
        "metallicFactor": 0.5,
        "roughnessFactor": 0.25
      }
    }
  ],
  "meshes": [
    {
      "name": "Plane001_03 - Default_0",
      "primitives": [
        {
          "attributes": {
            "NORMAL": 1,
            "POSITION": 0,
            "TEXCOORD_0": 2
          },
          "indices": 3,
          "material": 0,
          "mode": 4
        }
      ]
    },
    {
      "name": "Object001_01 - Default_0",
      "primitives": [
        {
          "attributes": {
            "NORMAL": 5,
            "POSITION": 4,
            "TEXCOORD_0": 6
          },
          "indices": 7,
          "material": 1,
          "mode": 4
        }
      ]
    },
    {
      "name": "Object002_02 - Default_0",
      "primitives": [
        {
          "attributes": {
            "NORMAL": 9,
            "POSITION": 8,
            "TEXCOORD_0": 10
          },
          "indices": 11,
          "material": 2,
          "mode": 4
        }
      ]
    }
  ],
  "nodes": [
    {
      "children": [
        1
      ],
      "matrix": [
        1.0,
        0.0,
        0.0,
        0.0,
        0.0,
        2.220446049250313e-16,
        -1.0,
        0.0,
        0.0,
        1.0,
        2.220446049250313e-16,
        0.0,
        0.0,
        0.0,
        0.0,
        1.0
      ],
      "name": "Sketchfab_model"
    },
    {
      "children": [
        2
      ],
      "matrix": [
        1.0,
        0.0,
        0.0,
        0.0,
        0.0,
        0.0,
        1.0,
        0.0,
        0.0,
        -1.0,
        0.0,
        0.0,
        0.0,
        0.0,
        0.0,
        1.0
      ],
      "name": "1e22067e7c054eb9a11c3c2718a39d2e.fbx"
    },
    {
      "children": [
        3
      ],
      "name": "Object_2"
    },
    {
      "children": [
        4,
        6,
        8
      ],
      "name": "RootNode"
    },
    {
      "children": [
        5
      ],
      "name": "Plane001",
      "rotation": [
        2.1855694143368964e-08,
        0.0,
        0.0,
        1.0
      ]
    },
    {
      "mesh": 0,
      "name": "Plane001_03 - Default_0"
    },
    {
      "children": [
        7
      ],
      "name": "Object001",
      "rotation": [
        8.146034247147327e-08,
        0.0,
        0.0,
        1.0
      ]
    },
    {
      "mesh": 1,
      "name": "Object001_01 - Default_0"
    },
    {
      "children": [
        9
      ],
      "name": "Object002",
      "rotation": [
        8.146034247147327e-08,
        0.0,
        0.0,
        1.0
      ]
    },
    {
      "mesh": 2,
      "name": "Object002_02 - Default_0"
    }
  ],
  "samplers": [
    {
      "magFilter": 9729,
      "minFilter": 9987,
      "wrapS": 10497,
      "wrapT": 10497
    }
  ],
  "scene": 0,
  "scenes": [
    {
      "name": "Sketchfab_Scene",
      "nodes": [
        0
      ]
    }
  ],
  "textures": [
    {
      "sampler": 0,
      "source": 0
    },
    {
      "sampler": 0,
      "source": 1
    }
  ]
}
