{
	"asset":{
		"generator":"Khronos glTF Blender I/O v4.2.70",
		"version":"2.0"
	},
	"scene":0,
	"scenes":[
		{
			"name":"Scene",
			"nodes":[
				3
			]
		}
	],
	"nodes":[
		{
			"mesh":0,
			"name":"defaultMaterial",
			"rotation":[
				0.017313534393906593,
				0,
				0,
				0.9998501539230347
			],
			"translation":[
				-0.1095307320356369,
				0,
				-2.0372707843780518
			]
		},
		{
			"children":[
				0
			],
			"name":"Cylinder",
			"rotation":[
				-0.70710688829422,
				0,
				0,
				0.7071066498756409
			],
			"scale":[
				100,
				99.99998474121094,
				99.99998474121094
			],
			"translation":[
				2.9249188899993896,
				313.3541259765625,
				93.66878509521484
			]
		},
		{
			"children":[
				1
			],
			"name":"Collada visual scene group",
			"rotation":[
				0.70710688829422,
				0,
				0,
				0.7071066498756409
			]
		},
		{
			"children":[
				2
			],
			"name":"Sketchfab_model",
			"rotation":[
				-0.70710688829422,
				0,
				0,
				0.7071066498756409
			],
			"scale":[
				0.02493751049041748,
				0.02493751421570778,
				0.02493751421570778
			]
		}
	],
	"materials":[
		{
			"alphaMode":"BLEND",
			"doubleSided":true,
			"name":"DefaultMaterial",
			"normalTexture":{
				"index":0
			},
			"occlusionTexture":{
				"index":1
			},
			"pbrMetallicRoughness":{
				"baseColorTexture":{
					"index":2
				},
				"metallicRoughnessTexture":{
					"index":1
				}
			}
		}
	],
	"meshes":[
		{
			"name":"defaultMaterial",
			"primitives":[
				{
					"attributes":{
						"POSITION":0,
						"NORMAL":1,
						"TEXCOORD_0":2
					},
					"indices":3,
					"material":0
				}
			]
		}
	],
	"textures":[
		{
			"sampler":0,
			"source":0
		},
		{
			"sampler":0,
			"source":1
		},
		{
			"sampler":0,
			"source":2
		}
	],
	"images":[
		{
			"mimeType":"image/png",
			"name":"Image_2",
			"uri":"Image_2.png"
		},
		{
			"mimeType":"image/png",
			"name":"Image_1",
			"uri":"Image_1.png"
		},
		{
			"mimeType":"image/png",
			"name":"Image_0",
			"uri":"Image_0.png"
		}
	],
	"accessors":[
		{
			"bufferView":0,
			"componentType":5126,
			"count":8295,
			"max":[
				2.958815097808838,
				5.708611011505127,
				1.0332109928131104
			],
			"min":[
				-2.958815097808838,
				-0.1813499927520752,
				-1.0889710187911987
			],
			"type":"VEC3"
		},
		{
			"bufferView":1,
			"componentType":5126,
			"count":8295,
			"type":"VEC3"
		},
		{
			"bufferView":2,
			"componentType":5126,
			"count":8295,
			"type":"VEC2"
		},
		{
			"bufferView":3,
			"componentType":5123,
			"count":29190,
			"type":"SCALAR"
		}
	],
	"bufferViews":[
		{
			"buffer":0,
			"byteLength":99540,
			"byteOffset":0,
			"target":34962
		},
		{
			"buffer":0,
			"byteLength":99540,
			"byteOffset":99540,
			"target":34962
		},
		{
			"buffer":0,
			"byteLength":66360,
			"byteOffset":199080,
			"target":34962
		},
		{
			"buffer":0,
			"byteLength":58380,
			"byteOffset":265440,
			"target":34963
		}
	],
	"samplers":[
		{
			"magFilter":9729,
			"minFilter":9987
		}
	],
	"buffers":[
		{
			"byteLength":323820,
			"uri":"untitled.bin"
		}
	]
}
