{
	"asset":{
		"generator":"Khronos glTF Blender I/O v4.2.70",
		"version":"2.0"
	},
	"scene":0,
	"scenes":[
		{
			"name":"Scene",
			"nodes":[
				3,
				21
			]
		}
	],
	"nodes":[
		{
			"name":"faceMesh"
		},
		{
			"children":[
				0
			],
			"name":"RootNode"
		},
		{
			"children":[
				1
			],
			"name":"e53f54f9c2a34cf4ad30f6cb89c16d60.fbx",
			"rotation":[
				0.70710688829422,
				0,
				0,
				0.7071066498756409
			]
		},
		{
			"children":[
				2
			],
			"name":"Sketchfab_model",
			"rotation":[
				-0.70710688829422,
				0,
				0,
				0.7071066498756409
			]
		},
		{
			"mesh":0,
			"name":"Mesh_0",
			"rotation":[
				0.028574379161000252,
				0.016195986419916153,
				-0.017506122589111328,
				0.9993071556091309
			],
			"translation":[
				0.0021381713449954987,
				0.005392014980316162,
				0.00847846269607544
			]
		},
		{
			"children":[
				4
			],
			"name":"_6"
		},
		{
			"children":[
				5
			],
			"name":"Frame_1_5"
		},
		{
			"mesh":1,
			"name":"Mesh_2"
		},
		{
			"children":[
				7
			],
			"name":"_10"
		},
		{
			"children":[
				8
			],
			"name":"Glasses_3_9"
		},
		{
			"mesh":2,
			"name":"Mesh_1",
			"rotation":[
				0.028574379161000252,
				0.016195986419916153,
				-0.017506122589111328,
				0.9993071556091309
			],
			"translation":[
				0.0021381713449954987,
				0.005392014980316162,
				0.00847846269607544
			]
		},
		{
			"children":[
				10
			],
			"name":"_8"
		},
		{
			"children":[
				11
			],
			"name":"Handles_2_7"
		},
		{
			"children":[
				6,
				9,
				12
			],
			"name":"glasses OBJ.OBJ_0_4"
		},
		{
			"children":[
				13
			],
			"name":"GLTF_SceneRootNode_3",
			"rotation":[
				0.70710688829422,
				0,
				0,
				0.7071066498756409
			]
		},
		{
			"children":[
				14
			],
			"name":"root_2"
		},
		{
			"children":[
				15
			],
			"name":"RootNode (model correction matrix)_1"
		},
		{
			"children":[
				16
			],
			"name":"RootNode (gltf orientation matrix)_0",
			"rotation":[
				-0.70710688829422,
				0,
				0,
				0.7071066498756409
			]
		},
		{
			"children":[
				17
			],
			"name":"GLTF_SceneRootNode",
			"rotation":[
				0.70710688829422,
				0,
				0,
				0.7071066498756409
			]
		},
		{
			"children":[
				18
			],
			"name":"root"
		},
		{
			"children":[
				19
			],
			"name":"RootNode (model correction matrix)"
		},
		{
			"children":[
				20
			],
			"name":"RootNode (gltf orientation matrix)",
			"rotation":[
				-0.70710688829422,
				0,
				0,
				0.7071066498756409
			],
			"scale":[
				5.820037364959717,
				5.820037841796875,
				5.820037841796875
			],
			"translation":[
				0.3340470790863037,
				2.7414023876190186,
				-1.9363276958465576
			]
		}
	],
	"materials":[
		{
			"name":"Frame",
			"pbrMetallicRoughness":{
				"baseColorFactor":[
					0.005572829861193895,
					0.005572829861193895,
					0.005572829861193895,
					1
				],
				"metallicFactor":0,
				"roughnessFactor":0.1541540026664734
			}
		},
		{
			"alphaMode":"MASK",
			"name":"Frame.1",
			"pbrMetallicRoughness":{
				"baseColorFactor":[
					1,
					1,
					1,
					0
				],
				"metallicFactor":0,
				"roughnessFactor":0.22732500731945038
			}
		},
		{
			"name":"Handles",
			"pbrMetallicRoughness":{
				"baseColorTexture":{
					"index":0
				},
				"metallicFactor":0,
				"metallicRoughnessTexture":{
					"index":1
				}
			}
		}
	],
	"meshes":[
		{
			"name":"Mesh_0",
			"primitives":[
				{
					"attributes":{
						"POSITION":0,
						"NORMAL":1,
						"TEXCOORD_0":2
					},
					"indices":3,
					"material":0
				}
			]
		},
		{
			"name":"Mesh_2",
			"primitives":[
				{
					"attributes":{
						"POSITION":4,
						"NORMAL":5,
						"TEXCOORD_0":6
					},
					"indices":7,
					"material":1
				}
			]
		},
		{
			"name":"Mesh_1",
			"primitives":[
				{
					"attributes":{
						"POSITION":8,
						"NORMAL":9,
						"TEXCOORD_0":10,
						"TEXCOORD_1":11,
						"TEXCOORD_2":12
					},
					"indices":13,
					"material":2
				}
			]
		}
	],
	"textures":[
		{
			"sampler":0,
			"source":0
		},
		{
			"sampler":0,
			"source":1
		}
	],
	"images":[
		{
			"mimeType":"image/jpeg",
			"name":"Handles_baseColor",
			"uri":"Handles_baseColor.jpg"
		},
		{
			"mimeType":"image/png",
			"name":"Handles_metallicRoughness",
			"uri":"Handles_metallicRoughness.png"
		}
	],
	"accessors":[
		{
			"bufferView":0,
			"componentType":5126,
			"count":22352,
			"max":[
				0.9765228033065796,
				0.33787521719932556,
				0.16570445895195007
			],
			"min":[
				-1.043529748916626,
				-0.3551415801048279,
				-0.03877979889512062
			],
			"type":"VEC3"
		},
		{
			"bufferView":1,
			"componentType":5126,
			"count":22352,
			"type":"VEC3"
		},
		{
			"bufferView":2,
			"componentType":5126,
			"count":22352,
			"type":"VEC2"
		},
		{
			"bufferView":3,
			"componentType":5123,
			"count":122208,
			"type":"SCALAR"
		},
		{
			"bufferView":4,
			"componentType":5126,
			"count":32264,
			"max":[
				0.9215558171272278,
				0.2608802914619446,
				0.12176568061113358
			],
			"min":[
				-0.9215555787086487,
				-0.3407418429851532,
				-0.005788560025393963
			],
			"type":"VEC3"
		},
		{
			"bufferView":5,
			"componentType":5126,
			"count":32264,
			"type":"VEC3"
		},
		{
			"bufferView":6,
			"componentType":5126,
			"count":32264,
			"type":"VEC2"
		},
		{
			"bufferView":7,
			"componentType":5123,
			"count":173952,
			"type":"SCALAR"
		},
		{
			"bufferView":8,
			"componentType":5126,
			"count":14743,
			"max":[
				1.0079066753387451,
				0.23205721378326416,
				-0.037404369562864304
			],
			"min":[
				-1.0078390836715698,
				-0.17230546474456787,
				-1.7524640560150146
			],
			"type":"VEC3"
		},
		{
			"bufferView":9,
			"componentType":5126,
			"count":14743,
			"type":"VEC3"
		},
		{
			"bufferView":10,
			"componentType":5126,
			"count":14743,
			"type":"VEC2"
		},
		{
			"bufferView":11,
			"componentType":5126,
			"count":14743,
			"type":"VEC2"
		},
		{
			"bufferView":12,
			"componentType":5126,
			"count":14743,
			"type":"VEC2"
		},
		{
			"bufferView":13,
			"componentType":5123,
			"count":65760,
			"type":"SCALAR"
		}
	],
	"bufferViews":[
		{
			"buffer":0,
			"byteLength":268224,
			"byteOffset":0,
			"target":34962
		},
		{
			"buffer":0,
			"byteLength":268224,
			"byteOffset":268224,
			"target":34962
		},
		{
			"buffer":0,
			"byteLength":178816,
			"byteOffset":536448,
			"target":34962
		},
		{
			"buffer":0,
			"byteLength":244416,
			"byteOffset":715264,
			"target":34963
		},
		{
			"buffer":0,
			"byteLength":387168,
			"byteOffset":959680,
			"target":34962
		},
		{
			"buffer":0,
			"byteLength":387168,
			"byteOffset":1346848,
			"target":34962
		},
		{
			"buffer":0,
			"byteLength":258112,
			"byteOffset":1734016,
			"target":34962
		},
		{
			"buffer":0,
			"byteLength":347904,
			"byteOffset":1992128,
			"target":34963
		},
		{
			"buffer":0,
			"byteLength":176916,
			"byteOffset":2340032,
			"target":34962
		},
		{
			"buffer":0,
			"byteLength":176916,
			"byteOffset":2516948,
			"target":34962
		},
		{
			"buffer":0,
			"byteLength":117944,
			"byteOffset":2693864,
			"target":34962
		},
		{
			"buffer":0,
			"byteLength":117944,
			"byteOffset":2811808,
			"target":34962
		},
		{
			"buffer":0,
			"byteLength":117944,
			"byteOffset":2929752,
			"target":34962
		},
		{
			"buffer":0,
			"byteLength":131520,
			"byteOffset":3047696,
			"target":34963
		}
	],
	"samplers":[
		{
			"magFilter":9729,
			"minFilter":9987
		}
	],
	"buffers":[
		{
			"byteLength":3179216,
			"uri":"untitled.bin"
		}
	]
}
