{
  "accessors": [
    {
      "bufferView": 2,
      "componentType": 5126,
      "count": 2353,
      "max": [
        0.21804243326187134,
        0.20822206139564514,
        1.6187602281570435
      ],
      "min": [
        -0.20699091255664825,
        -0.2077094316482544,
        1.3638814687728882
      ],
      "type": "VEC3"
    },
    {
      "bufferView": 2,
      "byteOffset": 28236,
      "componentType": 5126,
      "count": 2353,
      "max": [
        0.998775839805603,
        0.9993757009506226,
        0.9990270733833313
      ],
      "min": [
        -0.9992656707763672,
        -0.9975540637969971,
        -0.9995851516723633
      ],
      "type": "VEC3"
    },
    {
      "bufferView": 3,
      "componentType": 5126,
      "count": 2353,
      "max": [
        0.9999987483024597,
        0.999976634979248,
        0.9995067715644836,
        1.0
      ],
      "min": [
        -0.9998672604560852,
        -0.9999790787696838,
        -0.9999154806137085,
        -1.0
      ],
      "type": "VEC4"
    },
    {
      "bufferView": 3,
      "byteOffset": 37648,
      "componentType": 5126,
      "count": 2353,
      "max": [
        1.0,
        1.0,
        1.0,
        1.0
      ],
      "min": [
        0.0,
        0.0,
        0.0,
        1.0
      ],
      "type": "VEC4"
    },
    {
      "bufferView": 1,
      "componentType": 5126,
      "count": 2353,
      "max": [
        0.9999188780784607,
        0.44998615980148315
      ],
      "min": [
        8.135214011417702e-05,
        8.135214011417702e-05
      ],
      "type": "VEC2"
    },
    {
      "bufferView": 1,
      "byteOffset": 18824,
      "componentType": 5126,
      "count": 2353,
      "max": [
        0.9999188780784607,
        0.44998615980148315
      ],
      "min": [
        8.135214011417702e-05,
        8.135214011417702e-05
      ],
      "type": "VEC2"
    },
    {
      "bufferView": 0,
      "componentType": 5125,
      "count": 12072,
      "type": "SCALAR"
    }
  ],
  "asset": {
    "extras": {
      "author": "ChamberSu1996 (https://sketchfab.com/chambersu1996)",
      "license": "CC-BY-4.0 (http://creativecommons.org/licenses/by/4.0/)",
      "source": "https://sketchfab.com/3d-models/simple-hat-for-ray-ii-fb83cd5fdc114bceb9367dcbe00a33a5",
      "title": "Simple Hat For Ray II"
    },
    "generator": "Sketchfab-12.67.0",
    "version": "2.0"
  },
  "bufferViews": [
    {
      "buffer": 0,
      "byteLength": 48288,
      "name": "floatBufferViews",
      "target": 34963
    },
    {
      "buffer": 0,
      "byteLength": 37648,
      "byteOffset": 48288,
      "byteStride": 8,
      "name": "floatBufferViews",
      "target": 34962
    },
    {
      "buffer": 0,
      "byteLength": 56472,
      "byteOffset": 85936,
      "byteStride": 12,
      "name": "floatBufferViews",
      "target": 34962
    },
    {
      "buffer": 0,
      "byteLength": 75296,
      "byteOffset": 142408,
      "byteStride": 16,
      "name": "floatBufferViews",
      "target": 34962
    }
  ],
  "buffers": [
    {
      "byteLength": 217704,
      "uri": "scene.bin"
    }
  ],
  "images": [
    {
      "uri": "textures/HatLP_baseColor.png"
    },
    {
      "uri": "textures/HatLP_normal.png"
    }
  ],
  "materials": [
    {
      "alphaMode": "BLEND",
      "doubleSided": true,
      "name": "HatLP",
      "normalTexture": {
        "index": 1
      },
      "pbrMetallicRoughness": {
        "baseColorFactor": [
          1.0,
          1.0,
          1.0,
          0.9
        ],
        "baseColorTexture": {
          "index": 0
        },
        "metallicFactor": 0.25,
        "roughnessFactor": 0.5
      }
    }
  ],
  "meshes": [
    {
      "name": "HatLP_HatLP_0",
      "primitives": [
        {
          "attributes": {
            "COLOR_0": 3,
            "NORMAL": 1,
            "POSITION": 0,
            "TANGENT": 2,
            "TEXCOORD_0": 4,
            "TEXCOORD_1": 5
          },
          "indices": 6,
          "material": 0,
          "mode": 4
        }
      ]
    }
  ],
  "nodes": [
    {
      "children": [
        1
      ],
      "matrix": [
        1.0,
        0.0,
        0.0,
        0.0,
        0.0,
        2.220446049250313e-16,
        -1.0,
        0.0,
        0.0,
        1.0,
        2.220446049250313e-16,
        0.0,
        0.0,
        0.0,
        0.0,
        1.0
      ],
      "name": "Sketchfab_model"
    },
    {
      "children": [
        2
      ],
      "matrix": [
        1.0,
        0.0,
        0.0,
        0.0,
        0.0,
        0.0,
        1.0,
        0.0,
        0.0,
        -1.0,
        0.0,
        0.0,
        0.0,
        0.0,
        0.0,
        1.0
      ],
      "name": "SimpleHatForRayII.fbx"
    },
    {
      "children": [
        3
      ],
      "name": "RootNode"
    },
    {
      "children": [
        4
      ],
      "matrix": [
        100.0,
        0.0,
        0.0,
        0.0,
        0.0,
        -4.371139006309477e-06,
        -99.9999999999999,
        0.0,
        0.0,
        99.9999999999999,
        -4.371139006309477e-06,
        0.0,
        0.0,
        0.0,
        0.0,
        1.0
      ],
      "name": "HatLP"
    },
    {
      "mesh": 0,
      "name": "HatLP_HatLP_0"
    }
  ],
  "samplers": [
    {
      "magFilter": 9729,
      "minFilter": 9987,
      "wrapS": 10497,
      "wrapT": 10497
    }
  ],
  "scene": 0,
  "scenes": [
    {
      "name": "Sketchfab_Scene",
      "nodes": [
        0
      ]
    }
  ],
  "textures": [
    {
      "sampler": 0,
      "source": 0
    },
    {
      "sampler": 0,
      "source": 1
    }
  ]
}
